<svg xmlns="http://www.w3.org/2000/svg" width="1000" height="266" fill="none" viewBox="0 0 1000 266">
  <g clip-path="url(#clip0)">
    <path fill="#252525" d="M1000 264.76c-2-.06-4-.19-6-.19H6.87c-6.62 0-5.89.72-5.89-5.9v-116a9 9 0 01.02-3.18 3.064 3.064 0 012.14-1.68 3.01 3.01 0 012.35 1.44 8.32 8.32 0 01.31 3.51c-.09 2.44.43 4.21 3.46 4.1 2.48-.08 2.81 1.7 2.81 3.64v14.24c0 2.44.21 4.39 3.42 4.73.84.09 2 2.08 2.09 3.29.35 3.29.25 6.63.32 10 0 2.2 1.16 3.21 3.37 3.16 2.5-.05 5-.07 7.49 0 2.73.08 3.94-1.19 3.87-3.86a11.71 11.71 0 01.13-3.89c.32-1 1.43-2.37 2.19-2.36 3.71 0 4.2-2.08 4.19-5.1-.06-26.573-.06-53.147 0-79.72 0-3.11-.82-6.63 4.14-7.08.66-.06 1.47-2.49 1.53-3.86.12-2.46 1.18-3.36 3.53-3.34 5.47 0 11 .17 16.41-.06 3.66-.16 4.65 1.29 4.64 4.79-.12 26.33-.06 52.67-.06 79 0 1.3.08 2.61 0 3.91-.17 2.8 1.2 3.79 3.88 3.73 4.16-.1 8.33-.15 12.49 0 3.17.13 4.56-.95 4.41-4.28-.2-4.38.05-8.78-.07-13.17-.07-2.6.94-3.68 3.57-3.53 2.13.13 4.28-.07 6.42 0 2.73.05 3.73-1.2 3.71-3.92-.1-11.5 0-23 0-34.52 0-7.35 3-10.28 10.36-10.3 2.14 0 4.29.13 6.42 0 3.54-.27 6.45.47 8.85 3.42a6.401 6.401 0 004.39 1.72c3 .06 3.92 1.37 3.88 4.17-.09 7.83 0 15.66 0 23.49 0 1.91 0 3.72 2.47 4.53.76.24 1.37 2.09 1.42 3.23.17 4.62.19 9.26.08 13.88-.07 2.92 1.12 4 4 3.95 11.85-.09 10.23.8 10.24-10 .053-33.807.033-67.617-.06-101.43a9.893 9.893 0 013.22-7.85c5.75-5.49 11.3-11.2 17-16.79.88-.87 1.9-1.59 2.85-2.38l1.1.34c0 2.88.17 5.78 0 8.64-.25 3.16 1.06 4.32 4.1 4.22 3.45-.11 6.9.05 10.35 0 2.41 0 3.5 1 3.47 3.38v9.26c0 19.45-.05 38.91.07 58.37 0 1.78.79 4.83 1.8 5.1 2.63.71 5.61.37 8.38 0 .53-.07 1.09-2.21 1.11-3.41.12-6.52.05-13.05.11-19.57a10.317 10.317 0 0110.34-10.24c3.93 0 7.86.14 11.78 0 3.28-.16 4.29 1.12 4.28 4.36-.11 24.09-.06 48.17-.06 72.25 0 1.31.06 2.61 0 3.92-.09 2.35.95 3.58 3.37 3.52.116-.01.234-.01.35 0 8.83.5 8.82.5 8.82 9.5 0 4.5.09 9 0 13.52 0 3.07 1.15 4.65 4.42 4.56 4-.12 8.09-.08 12.13 0 2.39 0 3.53-1 3.54-3.39.01-2.39.08-4.74.1-7.12 0-2 .86-3 3-3.18 1.34-.12 3.14-.4 3.87-1.3 2.4-3 5.48-3.55 8.93-3.32 3.13.22 4.16-1.24 4.13-4.23-.09-11 .4-22.08-.16-33.09-.46-8.94 5.93-12.8 11.28-17.62a3.929 3.929 0 012.39-.51c5-.05 10 0 15-.05 2.52 0 3.59 1 3.65 3.6.1 4.56.51 4.83 5 4.89h5.71c5.18 0 5.25.07 5.26 5.12 0 17.32 0 34.64.06 52 .177 1.944.511 3.87 1 5.76 1.69-1.1 3.41-2.18 5.08-3.32.49-.32.83-.86 1.3-1.22 5.08-3.9 7.63-8.81 6.58-15.38-.49-3 .17-5.28 4.12-5.46.87 0 2.3-2.53 2.34-3.92.22-7.82.15-15.66.07-23.48 0-2.52.17-4.44 3.41-4.59.72 0 1.82-1.52 1.94-2.44.29-2.29 1.49-3.05 3.58-3 1.54 0 3.19-.32 4.61.11 1.2.35 2.88 1.45 3.05 2.44.48 2.7 2 3.31 4.27 3.09 3.48-.35 4.8 1 4.91 4.63.06 1.93 1.49 4.23 3 5.63 3.3 3.08 5.55 6.24 4.94 11.08a6.562 6.562 0 001.74 4.43 108.41 108.41 0 008.28 8.34 5.935 5.935 0 003.45 1.58c4.746.26 9.504.26 14.25 0 1.08-.07 2.35-1.83 2.92-3.09.5-1.09.12-2.57.15-3.87a6.781 6.781 0 01.17-2.12c.22-.61.85-1.61 1.18-1.57 4.68.65 4.8-8 10.38-5.08a4.637 4.637 0 012.35 2.83c.212 2.718.269 5.446.17 8.17 0 1-.23 2.19.26 2.79 2.94 3.6 7 1.31 10.57 1.74 2.28.28 3-1.35 3-3.43v-24.21c0-2.77-.38-5.64 3.85-5.73.63 0 1.68-1.66 1.73-2.59.15-2.73 1.64-3.42 4-3.34 1.19 0 2.38.05 3.57 0 2.38-.11 3.78.66 4 3.34.09 1 1.27 2.59 2.08 2.67 3.14.31 3.07 2.31 3.07 4.56v45.92c0 1.51.13 3 .24 5.35a23.618 23.618 0 003.25-2.09c2.31-2.21 4.35-4.75 6.84-6.74a12.76 12.76 0 015.76-2.85c2.73-.37 3.81-1.49 3.73-4.09 0-1.06.09-2.14 0-3.2-.16-2.33.74-3.66 3.22-3.56 2.9.12 3.52-1.49 3.51-4.05-.07-13.76 0-27.52 0-41.29 0-2.22-.12-4.25 2.9-4.8.72-.13 1.5-1.7 1.67-2.71.174-1.768.237-3.544.19-5.32 0-.82-.06-2.13.38-2.37 4.29-2.4 3-6.47 3.21-10.08.21-4.19.43-4.25 5.74-4.44 3.33-.11 5.14.63 5 4.45-.08 3.22-.94 6.62 2.74 9.23 1.23.87.57 4.46.66 6.81.11 2.63-.28 5.38 3.67 5.69.57 0 1.27 2 1.4 3.15.32 3-1 6.51 3.88 7.44.82.15 1.49 3.27 1.51 5 .15 10.2.24 20.41 0 30.61a11.557 11.557 0 004.06 9.64c4.83 4.38 9.23 9.24 14 13.74a8.857 8.857 0 004.49 2.44c5.34.72 6 0 6-5.35 0-8.31-.2-16.62.11-24.91.11-2.78 1.64-5.49 2.36-8.27a23.858 23.858 0 001-5.82c.06-34.52.06-69.043 0-103.57 0-4.1 1-7.13 4.09-10 6.85-6.39 13.35-13.18 20-19.79 1-1 2.06-1.82 3.79-3.31.15 2.45.33 4 .34 5.61v117.81c0 6.37 0 6.41 6.3 6.44 8.47 0 7.29-.47 7.39 7.56 0 2.49-.06 5 .06 7.47 0 1.15.09 2.68.79 3.36 3.08 3 2.6 6.67 2.59 10.32v18.51c0 4.06.78 4.76 4.81 4.81 3.33 0 6.66-.11 10 0 2.93.13 4-1.08 4-4-.09-9.84.06-19.69 0-29.54 0-3 .38-5 4.14-5 .89 0 2.44-1.79 2.55-2.87.29-3 1.73-3.94 4.45-3.72h1.42c6.26 0 6.33 0 7-6.07.23-2.17 1.35-2.85 3.3-2.76 3.14.15 6.16.2 6.18-4.25a1.691 1.691 0 011.1-1.2c3.92 0 8.1-1.57 11.5 1.81 2.6 2.6 5.15 5.27 7.9 7.71a8.401 8.401 0 004.24 2.24c2.76.28 3.22 1.67 3.21 4-.07 12.69 0 25.38 0 38.08 0 5.46 0 5.48 5.63 5.5h4.28c5.51 0 6-.52 6.06-6.18 0-9.38.09-18.75 0-28.12 0-3 .41-5.17 4.22-4.88.79.06 2.33-.92 2.38-1.53.36-3.82 3.11-3.19 5.55-3.31 3-.14 5.82-.33 5.89 4 0 .75 1.74 2 2.78 2.12 2.77.29 3.21 1.89 3.19 4.16 0 3.91 0 7.83.07 11.74.118 1.366.329 2.722.63 4.06 4.68-1.68 7.87-5.72 7.89-9.8 0-10.44.1-20.88-.06-31.32 0-2.93.84-4.21 3.82-3.95 1.42.13 2.85 0 4.28.05 4.59.16 6.74 2.3 6.8 6.82.06 4.52.13 9.26 0 13.88-.09 2.7.56 4.92 2.79 6.53 3.32 2.39 4.21 5.64 4.09 9.61-.23 7.23 0 14.48-.09 21.71 0 3.19 1.16 4.48 4.41 4.41 12.93-.26 11.14 1.76 11.21-11.07.09-18.63 0-37.26 0-55.88 0-5.08.05-5.09 5.23-5.11 2.61 0 5.24.12 7.85 0 2.85-.16 3.73 1.15 3.71 3.82-.07 7.83.1 15.66 0 23.49 0 3 .8 4.87 4.15 4.63 3.35-.24 4.4 1.58 4.14 4.6.055.826.055 1.654 0 2.48-1.48 6.87 2.83 11 7.48 14.54a8.203 8.203 0 007.28.56 11.35 11.35 0 005.13-6.55c.87-3.47.29-7.31.25-11 0-2.52 1-3.8 3.65-3.58.476.025.954.025 1.43 0 8.72 0 8.65 0 9.43 8.58a8 8 0 001.78 4.06 65.708 65.708 0 005.48 5.59c2 1.9 3.22 4 3 6.89-.22 2.89 1.07 4.1 4 4 4.75-.13 9.52-.12 14.27 0 2.68.08 3.6-1.13 3.59-3.61v-18.16c0-4.79.35-5.09 5-5.14 2.62 0 5.24-.16 7.85 0 2.61.16 3.61-1.06 3.56-3.59-.08-3.79.09-7.59 0-11.38-.06-2.56 1-3.7 3.56-3.66 4.76.06 9.52.08 14.28 0 2.46-.05 3.38 1 3.36 3.39-.05 7.36.15 14.71 0 22.07-.08 3.5 1.1 5.17 4.71 4.8.473-.025.947-.025 1.42 0 8.2 0 7.89.2 7.78-7-.05-3.13 3.49-6.47 6.67-6.69a33.383 33.383 0 015-.06c3.52.3 6.49-.4 8.86-3.33 1.41-1.73 10.88-2.6 12.58-1.18a5.002 5.002 0 011.16 3.39c.11 7.36.16 14.72 0 22.07-.07 3.19 1 4.49 4.32 4.46 10.62-.1 9.43.71 9.49-9.32 0-4.87.12-9.73.06-14.59 0-2.6 1.08-3.72 3.65-3.53 1.18.09 2.38 0 3.57.06 2.31 0 3.59-.94 3.44-3.41-.18-2.92 1.27-4 4.13-3.9 9.87.25 9.12-1.38 9.15 8.81v19.93c0 5.75.19 6 6.09 5.85a61.265 61.265 0 008.21-1.32l-.15 93.9z"/>
  </g>
  <defs>
    <clipPath id="clip0">
      <path fill="#fff" d="M0 0h1000v265.52H0z"/>
    </clipPath>
  </defs>
</svg>
