<svg id="Layer_1" data-name="Layer 1" xmlns="http://www.w3.org/2000/svg" viewBox="0 0 1000 265.52"><defs><style>.cls-1{fill:#fff;}</style></defs><path class="cls-1" d="M1000,632c-.12.24-.23.68-.36.68-.95.06-1.9,0-2.85,0H0V367.24H1000V538.08a61.24,61.24,0,0,1-8.21,1.32c-5.9.19-6.08-.1-6.09-5.85,0-6.64,0-13.29,0-19.93,0-10.19.72-8.56-9.15-8.81-2.86-.08-4.31,1-4.13,3.9.15,2.47-1.13,3.44-3.44,3.41-1.19,0-2.39,0-3.57-.06-2.57-.19-3.68.93-3.65,3.53.06,4.86,0,9.72-.06,14.59-.06,10,1.13,9.22-9.49,9.32-3.27,0-4.39-1.27-4.32-4.46.14-7.35.09-14.71,0-22.07a5,5,0,0,0-1.16-3.39c-1.7-1.42-11.17-.55-12.58,1.18-2.37,2.93-5.34,3.63-8.86,3.33a33.27,33.27,0,0,0-5,.06c-3.18.22-6.72,3.56-6.67,6.69.11,7.24.42,7-7.78,7a13.45,13.45,0,0,0-1.42,0c-3.61.37-4.79-1.3-4.71-4.8.17-7.36,0-14.71,0-22.07,0-2.4-.9-3.44-3.36-3.39-4.76.1-9.52.08-14.28,0-2.58,0-3.62,1.1-3.56,3.66.1,3.79-.07,7.59,0,11.38.05,2.53-.9,3.72-3.56,3.59s-5.23,0-7.85,0c-4.66.05-5,.35-5,5.14,0,6.06-.07,12.11,0,18.16,0,2.48-.91,3.69-3.59,3.61-4.75-.14-9.52-.15-14.27,0-3,.09-4.26-1.23-4-4s-1-5-3-6.89a65.65,65.65,0,0,1-5.48-5.59,8,8,0,0,1-1.78-4.06c-.78-8.62-.71-8.63-9.43-8.58a13.66,13.66,0,0,1-1.43,0c-2.62-.22-3.67,1.06-3.65,3.58,0,3.67.62,7.51-.25,11a11.35,11.35,0,0,1-5.13,6.55,8.2,8.2,0,0,1-7.28-.56c-4.65-3.5-9-7.67-7.48-14.54a18.6,18.6,0,0,0,0-2.48c.26-3-.75-4.84-4.14-4.6s-4.2-1.59-4.15-4.63c.11-7.83-.06-15.66,0-23.49,0-2.67-.86-4-3.71-3.82-2.61.15-5.24,0-7.85,0-5.18,0-5.22,0-5.23,5.11,0,18.62.06,37.25,0,55.88-.07,12.83,1.72,10.81-11.21,11.07-3.25.07-4.46-1.22-4.41-4.41.12-7.23-.14-14.48.09-21.71.12-4-.77-7.22-4.09-9.61-2.23-1.61-2.88-3.83-2.79-6.53.14-4.62.06-9.25,0-13.88s-2.21-6.66-6.8-6.82c-1.43-.05-2.86.08-4.28-.05-3-.26-3.86,1-3.82,3.95.16,10.44.1,20.88.06,31.32,0,4.08-3.21,8.12-7.89,9.8a30.38,30.38,0,0,1-.63-4.06c-.1-3.91-.11-7.83-.07-11.74,0-2.27-.42-3.87-3.19-4.16-1-.11-2.77-1.37-2.78-2.12-.07-4.36-2.9-4.17-5.89-4-2.44.12-5.19-.51-5.55,3.31,0,.61-1.59,1.59-2.38,1.53-3.81-.29-4.24,1.86-4.22,4.88.08,9.37,0,18.74,0,28.12,0,5.66-.55,6.15-6.06,6.18h-4.28c-5.59,0-5.63,0-5.63-5.5,0-12.7,0-25.39,0-38.08,0-2.36-.45-3.75-3.21-4a8.4,8.4,0,0,1-4.24-2.24c-2.75-2.44-5.3-5.11-7.9-7.71-3.4-3.38-7.58-1.84-11.5-1.81a1.69,1.69,0,0,0-1.1,1.2c0,4.45-3,4.4-6.18,4.25-2-.09-3.07.59-3.3,2.76-.66,6.06-.73,6.05-7,6.07-.47,0-.95,0-1.42,0-2.72-.22-4.16.76-4.45,3.72-.11,1.08-1.66,2.87-2.55,2.87-3.76,0-4.17,2-4.14,5,.09,9.85-.06,19.7,0,29.54,0,2.9-1,4.11-4,4-3.33-.15-6.66,0-10,0-4,0-4.77-.75-4.81-4.81-.06-6.17,0-12.34,0-18.51,0-3.65.49-7.35-2.59-10.32-.7-.68-.74-2.21-.79-3.36-.12-2.48,0-5-.06-7.47-.1-8,1.08-7.52-7.39-7.56-6.25,0-6.3-.07-6.3-6.44q0-58.91,0-117.81c0-1.58-.19-3.16-.34-5.61-1.73,1.49-2.82,2.34-3.79,3.31-6.66,6.61-13.16,13.4-20,19.79-3.08,2.87-4.1,5.9-4.09,10q.2,51.78,0,103.57a23.83,23.83,0,0,1-1,5.82c-.72,2.78-2.25,5.49-2.36,8.27-.31,8.29-.1,16.6-.11,24.91,0,5.39-.63,6.07-6,5.35a8.86,8.86,0,0,1-4.49-2.44c-4.73-4.5-9.13-9.36-14-13.74a11.56,11.56,0,0,1-4.06-9.64c.24-10.2.15-20.41,0-30.61,0-1.76-.69-4.88-1.51-5-4.85-.93-3.56-4.45-3.88-7.44-.13-1.14-.83-3.11-1.4-3.15-4-.31-3.56-3.06-3.67-5.69-.09-2.35.57-5.94-.66-6.81-3.68-2.61-2.82-6-2.74-9.23.1-3.82-1.71-4.56-5-4.45-5.31.19-5.53.25-5.74,4.44-.19,3.61,1.08,7.68-3.21,10.08-.44.24-.34,1.55-.38,2.37a42.73,42.73,0,0,1-.19,5.32c-.17,1-.95,2.58-1.67,2.71-3,.55-2.9,2.58-2.9,4.8,0,13.77,0,27.53,0,41.29,0,2.56-.61,4.17-3.51,4.05-2.48-.1-3.38,1.23-3.22,3.56.08,1.06-.05,2.14,0,3.2.08,2.6-1,3.72-3.73,4.09a12.77,12.77,0,0,0-5.89,2.68c-2.49,2-4.53,4.53-6.84,6.74a23.58,23.58,0,0,1-3.25,2.09c-.11-2.33-.24-3.84-.24-5.35q0-23,0-45.92c0-2.25.07-4.25-3.07-4.56-.81-.08-2-1.69-2.08-2.67-.22-2.68-1.62-3.45-4-3.34-1.19.06-2.38.05-3.57,0-2.35-.08-3.84.61-4,3.34-.05.93-1.1,2.57-1.73,2.59-4.23.09-3.85,3-3.85,5.73,0,8.07,0,16.14,0,24.21,0,2.08-.77,3.71-3,3.43-3.55-.43-7.63,1.86-10.57-1.74-.49-.6-.24-1.84-.26-2.79a71.73,71.73,0,0,0-.17-8.17,4.64,4.64,0,0,0-2.35-2.83c-5.58-2.88-5.7,5.73-10.38,5.08-.33,0-1,1-1.18,1.57a6.77,6.77,0,0,0-.17,2.12c0,1.3.35,2.78-.15,3.87-.57,1.26-1.84,3-2.92,3.09a130.25,130.25,0,0,1-14.25,0,5.94,5.94,0,0,1-3.45-1.58,108.58,108.58,0,0,1-8.28-8.34,6.56,6.56,0,0,1-1.74-4.43c.61-4.84-1.64-8-4.94-11.08-1.5-1.4-2.93-3.7-3-5.63-.11-3.63-1.43-5-4.91-4.63-2.28.22-3.79-.39-4.27-3.09-.17-1-1.85-2.09-3.05-2.44-1.42-.43-3.07-.08-4.61-.11-2.09,0-3.29.72-3.58,3-.12.92-1.22,2.4-1.94,2.44-3.24.15-3.44,2.07-3.41,4.59.08,7.82.15,15.66-.07,23.48,0,1.39-1.47,3.88-2.34,3.92-3.95.18-4.61,2.44-4.12,5.46,1.05,6.57-1.5,11.48-6.58,15.38-.47.36-.81.9-1.3,1.22-1.67,1.14-3.39,2.22-5.08,3.32a36,36,0,0,1-1-5.76c-.08-17.33,0-34.65-.06-52,0-5.05-.08-5.09-5.26-5.12-1.9,0-3.8,0-5.71,0-4.45-.06-4.86-.33-5-4.89-.06-2.62-1.13-3.63-3.65-3.6-5,.06-10,0-15,.05a3.93,3.93,0,0,0-2.39.51c-5.35,4.82-11.74,8.68-11.28,17.62.56,11,.07,22.06.16,33.09,0,3-1,4.45-4.13,4.23-3.45-.23-6.53.35-8.93,3.32-.73.9-2.53,1.18-3.87,1.3-2.11.19-3,1.2-3,3.18,0,2.38-.09,4.75-.1,7.12s-1.15,3.43-3.54,3.39c-4-.06-8.09-.1-12.13,0-3.27.09-4.46-1.49-4.42-4.56.05-4.51,0-9,0-13.52,0-9,0-9-8.82-9.5a2.08,2.08,0,0,0-.35,0c-2.42.06-3.46-1.17-3.37-3.52,0-1.31,0-2.61,0-3.92,0-24.08-.05-48.16.06-72.25,0-3.24-1-4.52-4.28-4.36-3.92.18-7.85,0-11.78,0a10.32,10.32,0,0,0-10.34,10.24c-.06,6.52,0,13.05-.11,19.57,0,1.2-.58,3.34-1.11,3.41-2.77.37-5.75.71-8.38,0-1-.27-1.79-3.32-1.8-5.1-.12-19.46-.07-38.92-.07-58.37,0-3.09-.06-6.17,0-9.26,0-2.4-1.06-3.43-3.47-3.38-3.45.08-6.9-.08-10.35,0-3,.1-4.35-1.06-4.1-4.22.22-2.86,0-5.76,0-8.64l-1.1-.34c-.95.79-2,1.51-2.85,2.38-5.66,5.59-11.21,11.3-17,16.79a9.89,9.89,0,0,0-3.22,7.85q.15,50.72.06,101.43c0,10.79,1.61,9.9-10.24,10-2.9,0-4.09-1-4-3.95.11-4.62.09-9.26-.08-13.88-.05-1.14-.66-3-1.42-3.23-2.51-.81-2.46-2.62-2.47-4.53,0-7.83-.08-15.66,0-23.49,0-2.8-.88-4.11-3.88-4.17a6.4,6.4,0,0,1-4.39-1.72c-2.4-2.95-5.31-3.69-8.85-3.42-2.13.16-4.28,0-6.42,0-7.38,0-10.35,2.95-10.36,10.3,0,11.51-.06,23,0,34.52,0,2.72-1,4-3.71,3.92-2.14,0-4.29.16-6.42,0-2.63-.15-3.64.93-3.57,3.53.12,4.39-.13,8.79.07,13.17.15,3.33-1.24,4.41-4.41,4.28-4.16-.17-8.33-.12-12.49,0-2.68.06-4-.93-3.88-3.73.08-1.3,0-2.61,0-3.91,0-26.34-.06-52.68.06-79,0-3.5-1-4.95-4.64-4.79-5.46.23-10.94.11-16.41.06-2.35,0-3.41.88-3.53,3.34-.06,1.37-.87,3.8-1.53,3.86-5,.45-4.13,4-4.14,7.08q0,39.85,0,79.72c0,3-.48,5.1-4.19,5.1-.76,0-1.87,1.4-2.19,2.36a11.71,11.71,0,0,0-.13,3.89c.07,2.67-1.14,3.94-3.87,3.86-2.49-.08-5-.06-7.49,0-2.21,0-3.32-1-3.37-3.16-.07-3.32,0-6.66-.32-10-.14-1.21-1.25-3.2-2.09-3.29-3.21-.34-3.44-2.29-3.42-4.73,0-4.75,0-9.49,0-14.24,0-1.94-.33-3.72-2.81-3.64-3,.11-3.55-1.66-3.46-4.1a8.32,8.32,0,0,0-.27-3.51,3,3,0,0,0-2.35-1.44A3.07,3.07,0,0,0,1,506.73a9,9,0,0,0-.12,3.17q0,58,0,116c0,6.62-.73,5.9,5.89,5.9l987.13,0C996,631.85,998,632,1000,632Z" transform="translate(0 -367.24)"/><path d="M1000,632c-2-.06-4-.19-6-.19l-987.13,0c-6.62,0-5.89.72-5.89-5.9q0-58,0-116A9,9,0,0,1,1,506.73a3.07,3.07,0,0,1,2.14-1.68,3,3,0,0,1,2.35,1.44A8.32,8.32,0,0,1,5.8,510c-.09,2.44.43,4.21,3.46,4.1,2.48-.08,2.81,1.7,2.81,3.64,0,4.75,0,9.49,0,14.24,0,2.44.21,4.39,3.42,4.73.84.09,2,2.08,2.09,3.29.35,3.29.25,6.63.32,10,0,2.2,1.16,3.21,3.37,3.16,2.5-.05,5-.07,7.49,0,2.73.08,3.94-1.19,3.87-3.86a11.71,11.71,0,0,1,.13-3.89c.32-1,1.43-2.37,2.19-2.36,3.71,0,4.2-2.08,4.19-5.1q-.09-39.86,0-79.72c0-3.11-.82-6.63,4.14-7.08.66-.06,1.47-2.49,1.53-3.86.12-2.46,1.18-3.36,3.53-3.34,5.47,0,11,.17,16.41-.06,3.66-.16,4.65,1.29,4.64,4.79-.12,26.33-.06,52.67-.06,79,0,1.3.08,2.61,0,3.91-.17,2.8,1.2,3.79,3.88,3.73,4.16-.1,8.33-.15,12.49,0,3.17.13,4.56-.95,4.41-4.28-.2-4.38.05-8.78-.07-13.17-.07-2.6.94-3.68,3.57-3.53,2.13.13,4.28-.07,6.42,0,2.73.05,3.73-1.2,3.71-3.92-.1-11.5,0-23,0-34.52,0-7.35,3-10.28,10.36-10.3,2.14,0,4.29.13,6.42,0,3.54-.27,6.45.47,8.85,3.42a6.4,6.4,0,0,0,4.39,1.72c3,.06,3.92,1.37,3.88,4.17-.09,7.83,0,15.66,0,23.49,0,1.91,0,3.72,2.47,4.53.76.24,1.37,2.09,1.42,3.23.17,4.62.19,9.26.08,13.88-.07,2.92,1.12,4,4,3.95,11.85-.09,10.23.8,10.24-10q.08-50.71-.06-101.43a9.89,9.89,0,0,1,3.22-7.85c5.75-5.49,11.3-11.2,17-16.79.88-.87,1.9-1.59,2.85-2.38l1.1.34c0,2.88.17,5.78,0,8.64-.25,3.16,1.06,4.32,4.1,4.22,3.45-.11,6.9.05,10.35,0,2.41,0,3.5,1,3.47,3.38,0,3.09,0,6.17,0,9.26,0,19.45-.05,38.91.07,58.37,0,1.78.79,4.83,1.8,5.1,2.63.71,5.61.37,8.38,0,.53-.07,1.09-2.21,1.11-3.41.12-6.52.05-13.05.11-19.57a10.32,10.32,0,0,1,10.34-10.24c3.93,0,7.86.14,11.78,0,3.28-.16,4.29,1.12,4.28,4.36-.11,24.09-.06,48.17-.06,72.25,0,1.31.06,2.61,0,3.92-.09,2.35.95,3.58,3.37,3.52a2.08,2.08,0,0,1,.35,0c8.83.5,8.82.5,8.82,9.5,0,4.5.09,9,0,13.52,0,3.07,1.15,4.65,4.42,4.56,4-.12,8.09-.08,12.13,0,2.39,0,3.53-1,3.54-3.39s.08-4.74.1-7.12c0-2,.86-3,3-3.18,1.34-.12,3.14-.4,3.87-1.3,2.4-3,5.48-3.55,8.93-3.32,3.13.22,4.16-1.24,4.13-4.23-.09-11,.4-22.08-.16-33.09-.46-8.94,5.93-12.8,11.28-17.62a3.93,3.93,0,0,1,2.39-.51c5-.05,10,0,15-.05,2.52,0,3.59,1,3.65,3.6.1,4.56.51,4.83,5,4.89,1.91,0,3.81,0,5.71,0,5.18,0,5.25.07,5.26,5.12,0,17.32,0,34.64.06,52a36,36,0,0,0,1,5.76c1.69-1.1,3.41-2.18,5.08-3.32.49-.32.83-.86,1.3-1.22,5.08-3.9,7.63-8.81,6.58-15.38-.49-3,.17-5.28,4.12-5.46.87,0,2.3-2.53,2.34-3.92.22-7.82.15-15.66.07-23.48,0-2.52.17-4.44,3.41-4.59.72,0,1.82-1.52,1.94-2.44.29-2.29,1.49-3.05,3.58-3,1.54,0,3.19-.32,4.61.11,1.2.35,2.88,1.45,3.05,2.44.48,2.7,2,3.31,4.27,3.09,3.48-.35,4.8,1,4.91,4.63.06,1.93,1.49,4.23,3,5.63,3.3,3.08,5.55,6.24,4.94,11.08a6.56,6.56,0,0,0,1.74,4.43,108.58,108.58,0,0,0,8.28,8.34,5.94,5.94,0,0,0,3.45,1.58,130.25,130.25,0,0,0,14.25,0c1.08-.07,2.35-1.83,2.92-3.09.5-1.09.12-2.57.15-3.87a6.77,6.77,0,0,1,.17-2.12c.22-.61.85-1.61,1.18-1.57,4.68.65,4.8-8,10.38-5.08a4.64,4.64,0,0,1,2.35,2.83,71.73,71.73,0,0,1,.17,8.17c0,1-.23,2.19.26,2.79,2.94,3.6,7,1.31,10.57,1.74,2.28.28,3-1.35,3-3.43,0-8.07,0-16.14,0-24.21,0-2.77-.38-5.64,3.85-5.73.63,0,1.68-1.66,1.73-2.59.15-2.73,1.64-3.42,4-3.34,1.19,0,2.38.05,3.57,0,2.38-.11,3.78.66,4,3.34.09,1,1.27,2.59,2.08,2.67,3.14.31,3.07,2.31,3.07,4.56q0,23,0,45.92c0,1.51.13,3,.24,5.35a23.58,23.58,0,0,0,3.25-2.09c2.31-2.21,4.35-4.75,6.84-6.74A12.77,12.77,0,0,1,488,540c2.73-.37,3.81-1.49,3.73-4.09,0-1.06.09-2.14,0-3.2-.16-2.33.74-3.66,3.22-3.56,2.9.12,3.52-1.49,3.51-4.05-.07-13.76,0-27.52,0-41.29,0-2.22-.12-4.25,2.9-4.8.72-.13,1.5-1.7,1.67-2.71a42.73,42.73,0,0,0,.19-5.32c0-.82-.06-2.13.38-2.37,4.29-2.4,3-6.47,3.21-10.08.21-4.19.43-4.25,5.74-4.44,3.33-.11,5.14.63,5,4.45-.08,3.22-.94,6.62,2.74,9.23,1.23.87.57,4.46.66,6.81.11,2.63-.28,5.38,3.67,5.69.57,0,1.27,2,1.4,3.15.32,3-1,6.51,3.88,7.44.82.15,1.49,3.27,1.51,5,.15,10.2.24,20.41,0,30.61a11.56,11.56,0,0,0,4.06,9.64c4.83,4.38,9.23,9.24,14,13.74a8.86,8.86,0,0,0,4.49,2.44c5.34.72,6,0,6-5.35,0-8.31-.2-16.62.11-24.91.11-2.78,1.64-5.49,2.36-8.27a23.83,23.83,0,0,0,1-5.82q.09-51.78,0-103.57c0-4.1,1-7.13,4.09-10,6.85-6.39,13.35-13.18,20-19.79,1-1,2.06-1.82,3.79-3.31.15,2.45.33,4,.34,5.61q0,58.9,0,117.81c0,6.37,0,6.41,6.3,6.44,8.47,0,7.29-.47,7.39,7.56,0,2.49-.06,5,.06,7.47,0,1.15.09,2.68.79,3.36,3.08,3,2.6,6.67,2.59,10.32,0,6.17,0,12.34,0,18.51,0,4.06.78,4.76,4.81,4.81,3.33,0,6.66-.11,10,0,2.93.13,4-1.08,4-4-.09-9.84.06-19.69,0-29.54,0-3,.38-5,4.14-5,.89,0,2.44-1.79,2.55-2.87.29-3,1.73-3.94,4.45-3.72.47,0,.95,0,1.42,0,6.26,0,6.33,0,7-6.07.23-2.17,1.35-2.85,3.3-2.76,3.14.15,6.16.2,6.18-4.25a1.69,1.69,0,0,1,1.1-1.2c3.92,0,8.1-1.57,11.5,1.81,2.6,2.6,5.15,5.27,7.9,7.71a8.4,8.4,0,0,0,4.24,2.24c2.76.28,3.22,1.67,3.21,4-.07,12.69,0,25.38,0,38.08,0,5.46,0,5.48,5.63,5.5h4.28c5.51,0,6-.52,6.06-6.18,0-9.38.09-18.75,0-28.12,0-3,.41-5.17,4.22-4.88.79.06,2.33-.92,2.38-1.53.36-3.82,3.11-3.19,5.55-3.31,3-.14,5.82-.33,5.89,4,0,.75,1.74,2,2.78,2.12,2.77.29,3.21,1.89,3.19,4.16,0,3.91,0,7.83.07,11.74a30.38,30.38,0,0,0,.63,4.06c4.68-1.68,7.87-5.72,7.89-9.8,0-10.44.1-20.88-.06-31.32,0-2.93.84-4.21,3.82-3.95,1.42.13,2.85,0,4.28.05,4.59.16,6.74,2.3,6.8,6.82s.13,9.26,0,13.88c-.09,2.7.56,4.92,2.79,6.53,3.32,2.39,4.21,5.64,4.09,9.61-.23,7.23,0,14.48-.09,21.71,0,3.19,1.16,4.48,4.41,4.41,12.93-.26,11.14,1.76,11.21-11.07.09-18.63,0-37.26,0-55.88,0-5.08.05-5.09,5.23-5.11,2.61,0,5.24.12,7.85,0,2.85-.16,3.73,1.15,3.71,3.82-.07,7.83.1,15.66,0,23.49,0,3,.8,4.87,4.15,4.63s4.4,1.58,4.14,4.6a18.6,18.6,0,0,1,0,2.48c-1.48,6.87,2.83,11,7.48,14.54a8.2,8.2,0,0,0,7.28.56,11.35,11.35,0,0,0,5.13-6.55c.87-3.47.29-7.31.25-11,0-2.52,1-3.8,3.65-3.58a13.66,13.66,0,0,0,1.43,0c8.72,0,8.65,0,9.43,8.58a8,8,0,0,0,1.78,4.06,65.65,65.65,0,0,0,5.48,5.59c2,1.9,3.22,4,3,6.89s1.07,4.1,4,4c4.75-.13,9.52-.12,14.27,0,2.68.08,3.6-1.13,3.59-3.61,0-6.05,0-12.1,0-18.16,0-4.79.35-5.09,5-5.14,2.62,0,5.24-.16,7.85,0s3.61-1.06,3.56-3.59c-.08-3.79.09-7.59,0-11.38-.06-2.56,1-3.7,3.56-3.66,4.76.06,9.52.08,14.28,0,2.46-.05,3.38,1,3.36,3.39-.05,7.36.15,14.71,0,22.07-.08,3.5,1.1,5.17,4.71,4.8a13.45,13.45,0,0,1,1.42,0c8.2,0,7.89.2,7.78-7-.05-3.13,3.49-6.47,6.67-6.69a33.27,33.27,0,0,1,5-.06c3.52.3,6.49-.4,8.86-3.33,1.41-1.73,10.88-2.6,12.58-1.18a5,5,0,0,1,1.16,3.39c.11,7.36.16,14.72,0,22.07-.07,3.19,1,4.49,4.32,4.46,10.62-.1,9.43.71,9.49-9.32,0-4.87.12-9.73.06-14.59,0-2.6,1.08-3.72,3.65-3.53,1.18.09,2.38,0,3.57.06,2.31,0,3.59-.94,3.44-3.41-.18-2.92,1.27-4,4.13-3.9,9.87.25,9.12-1.38,9.15,8.81,0,6.64,0,13.29,0,19.93,0,5.75.19,6,6.09,5.85a61.24,61.24,0,0,0,8.21-1.32Z" transform="translate(0 -367.24)"/></svg>