<svg xmlns="http://www.w3.org/2000/svg" width="20" height="20" fill="none" viewBox="0 0 20 20">
  <path fill="url(#paint0_linear)" d="M2.938 3.4A1.5 1.5 0 014.435 2h1.129A1.5 1.5 0 017.06 3.4l.866 13A1.5 1.5 0 016.43 18H3.568a1.5 1.5 0 01-1.496-1.6l.866-13zM8.43 18c.346-.46.536-1.043.494-1.666l-.521-7.82 3.76-3.386A.5.5 0 0113 5.5v3.377l4.165-3.749A.5.5 0 0118 5.5v11a1.5 1.5 0 01-1.5 1.5H8.43zM16 17v-4.2a.8.8 0 00-.8-.8h-3.4a.8.8 0 00-.8.8V17h5z"/>
  <defs>
    <linearGradient id="paint0_linear" x1="10.034" x2="10.034" y1="2" y2="18" gradientUnits="userSpaceOnUse">
      <stop stop-color="#FFB800"/>
      <stop offset="1" stop-color="#FF8A00"/>
    </linearGradient>
  </defs>
</svg>
