<svg xmlns="http://www.w3.org/2000/svg" width="332" height="213" fill="none" viewBox="0 0 332 213">
  <rect width="316" height="150" x="5" y="26" fill="#373737" stroke="#9B9B9B" stroke-width="10" rx="15"/>
  <g clip-path="url(#clip0)">
    <path fill="url(#paint0_linear)" stroke="#9B9B9B" stroke-width="5" d="M255.082 57.771a5.236 5.236 0 00.96-3.196 5.492 5.492 0 00-1.166-3.186l-1.622-1.903c-5.806-6.254-12.972-11.219-20.97-14.529-14.5-5.91-34.663-7.137-58.674 8.096l-11.777-3.155a6.048 6.048 0 00-2.25-.168 5.815 5.815 0 00-2.124.668l-18.031 9.814c-1.311.716-2.258 1.906-2.635 3.312-.376 1.405-.151 2.91.626 4.184l21.392 35.08c.386.634.898 1.191 1.505 1.64a6.048 6.048 0 004.283 1.148 5.811 5.811 0 002.123-.668l18.04-9.846c1.311-.715 2.259-1.906 2.636-3.31l1.818-6.785 68.474 119.319a5.712 5.712 0 001.391 1.976 6.064 6.064 0 004.559 1.578 5.812 5.812 0 002.335-.685l21.029-11.435a5.369 5.369 0 002.604-3.184 5.341 5.341 0 00-.454-4.08L211.697 59.495c9.645-2.605 22.188-3.603 37.161.41a5.996 5.996 0 003.493-.11 5.531 5.531 0 002.731-2.024v0z"/>
  </g>
  <path fill="url(#paint1_linear)" d="M27.059 95h11.289c8.449 0 13.206-1.491 13.206-11.928v-2.84c0-5.396-1.491-7.952-4.473-9.088 2.627-1.278 4.118-3.55 4.118-8.307v-1.136c0-9.514-4.757-11.147-13.135-11.147H27.059V95zm8.378-6.603V74.765h3.124c4.118 0 4.615 1.136 4.615 5.183v3.195c0 3.692-.497 5.254-4.686 5.254h-3.053zm0-20.235V57.157h2.769c4.189 0 4.615 1.42 4.615 5.112v.639c0 3.976-.426 5.254-4.544 5.254h-2.84zm31.43 27.122c9.869 0 12.567-4.686 12.567-12.496V50.554h-8.307v31.808c0 4.26-1.207 5.751-4.26 5.751-3.195 0-4.19-1.491-4.19-5.822V50.554H54.3v32.305c0 7.81 2.84 12.425 12.567 12.425zM83.292 95h8.378V50.554h-8.378V95zm12.548 0h20.022v-7.313h-11.644V50.554H95.84V95zm22.742 0h12.496C140.876 95 144 89.675 144 82.149V62.908c0-7.313-2.698-12.354-12.993-12.354h-12.425V95zm8.378-7.029V57.725h4.047c4.047 0 4.615 2.272 4.615 5.325v19.312c0 3.763-.781 5.609-4.544 5.609h-4.118z"/>
  <path fill="url(#paint2_linear)" d="M38.632 150.284c9.443 0 12.851-4.26 12.851-11.431 0-6.958-4.331-10.153-10.366-15.052-4.615-3.692-6.319-5.041-6.319-7.597 0-2.059.852-3.621 3.905-3.621 2.84 0 3.692 1.278 3.905 4.899l8.378-.781c-.852-7.81-3.55-11.502-12.496-11.502-7.384 0-12.07 3.337-12.07 11.289 0 6.035 3.763 9.301 9.23 13.561 5.254 4.26 7.384 5.751 7.384 8.804 0 2.414-.71 4.118-4.118 4.118-3.55 0-4.402-.852-4.615-7.1l-8.52 1.065c.284 7.952 2.556 13.348 12.851 13.348zM70.139 150h8.733l-7.81-29.607 7.455-14.839h-8.236l-7.526 14.839v-14.839h-8.378V150h8.378v-15.691l2.13-4.118L70.14 150zm18.171 0h8.378v-15.194l9.088-29.252h-8.165l-4.97 16.969-4.757-16.969h-8.52l8.946 29.252V150zm19.733 0h20.022v-7.313h-11.644v-37.133h-8.378V150zm22.814 0h8.378v-44.446h-8.378V150zm12.548 0h7.952v-26.625L159.664 150h8.236v-44.446h-8.023v21.939l-6.319-21.939h-10.153V150zm28.635 0h20.874v-7.313h-12.496v-13.419h10.366v-6.958h-10.366v-9.372h12.496v-7.384H172.04V150zm35.148.284c9.443 0 12.851-4.26 12.851-11.431 0-6.958-4.331-10.153-10.366-15.052-4.615-3.692-6.319-5.041-6.319-7.597 0-2.059.852-3.621 3.905-3.621 2.84 0 3.692 1.278 3.905 4.899l8.378-.781c-.852-7.81-3.55-11.502-12.496-11.502-7.384 0-12.07 3.337-12.07 11.289 0 6.035 3.763 9.301 9.23 13.561 5.254 4.26 7.384 5.751 7.384 8.804 0 2.414-.71 4.118-4.118 4.118-3.55 0-4.402-.852-4.615-7.1l-8.52 1.065c.284 7.952 2.556 13.348 12.851 13.348z"/>
  <defs>
    <linearGradient id="paint0_linear" x1="235.362" x2="196.539" y1="35.326" y2="180.215" gradientUnits="userSpaceOnUse">
      <stop stop-color="#6E6E6E"/>
      <stop offset="1" stop-color="#656565"/>
    </linearGradient>
    <linearGradient id="paint1_linear" x1="85.5" x2="85.5" y1="31" y2="101" gradientUnits="userSpaceOnUse">
      <stop stop-color="#fff"/>
      <stop offset="1" stop-color="#B9B9B9"/>
    </linearGradient>
    <linearGradient id="paint2_linear" x1="123" x2="123" y1="86" y2="171" gradientUnits="userSpaceOnUse">
      <stop stop-color="#fff"/>
      <stop offset="1" stop-color="#fff" stop-opacity=".34"/>
    </linearGradient>
    <clipPath id="clip0">
      <path fill="#fff" d="M0 0h212v162.551H0z" transform="rotate(15 59.906 483.066)"/>
    </clipPath>
  </defs>
</svg>
