<svg xmlns="http://www.w3.org/2000/svg" width="65" height="38" fill="none" viewBox="0 0 65 38">
  <g filter="url(#filter0_i)">
    <path fill="#fff" d="M0 7a5 5 0 015-5h55a5 5 0 015 5v31H10C4.477 38 0 33.523 0 28V7z"/>
  </g>
  <g filter="url(#filter1_i)">
    <path fill="#0B0B0B" d="M0 28h55c5.523 0 10 4.477 10 10H10C4.477 38 0 33.523 0 28z"/>
  </g>
  <path fill="url(#paint0_linear)" d="M8.812 25h4.452c3.332 0 5.208-.588 5.208-4.704v-1.12c0-2.128-.588-3.136-1.764-3.584 1.036-.504 1.624-1.4 1.624-3.276v-.448c0-3.752-1.876-4.396-5.18-4.396h-4.34V25zm3.304-2.604V17.02h1.232c1.624 0 1.82.448 1.82 2.044v1.26c0 1.456-.196 2.072-1.848 2.072h-1.204zm0-7.98v-4.34h1.092c1.652 0 1.82.56 1.82 2.016v.252c0 1.568-.168 2.072-1.792 2.072h-1.12zm12.395 10.696c3.892 0 4.956-1.848 4.956-4.928V7.472H26.19v12.544c0 1.68-.476 2.268-1.68 2.268-1.26 0-1.652-.588-1.652-2.296V7.472h-3.304v12.74c0 3.08 1.12 4.9 4.956 4.9zM30.988 25h3.304V7.472h-3.304V25zm4.949 0h7.896v-2.884h-4.592V7.472h-3.304V25zm8.969 0h4.928c3.864 0 5.096-2.1 5.096-5.068v-7.588c0-2.884-1.064-4.872-5.124-4.872h-4.9V25zm3.304-2.772V10.3h1.596c1.596 0 1.82.896 1.82 2.1v7.616c0 1.484-.308 2.212-1.792 2.212H48.21z"/>
  <path fill="#fff" d="M12.536 35.032c1.064 0 1.448-.48 1.448-1.288 0-.784-.488-1.144-1.168-1.696-.52-.416-.712-.568-.712-.856 0-.232.096-.408.44-.408.32 0 .416.144.44.552l.944-.088c-.096-.88-.4-1.296-1.408-1.296-.832 0-1.36.376-1.36 1.272 0 .68.424 1.048 1.04 1.528.592.48.832.648.832.992 0 .272-.08.464-.464.464-.4 0-.496-.096-.52-.8l-.96.12c.032.896.288 1.504 1.448 1.504zm6.31-.032h.984l-.88-3.336.84-1.672h-.928l-.848 1.672v-1.672h-.944V35h.944v-1.768l.24-.464.592 2.232zm4.808 0h.944v-1.712l1.024-3.296h-.92l-.56 1.912-.536-1.912h-.96l1.008 3.296V35zm4.983 0h2.256v-.824h-1.312v-4.184h-.944V35zm5.33 0h.944v-5.008h-.944V35zm4.174 0h.896v-3l.936 3h.928v-5.008h-.904v2.472l-.712-2.472h-1.144V35zm5.987 0h2.352v-.824h-1.408v-1.512h1.168v-.784h-1.168v-1.056h1.408v-.832h-2.352V35zm6.72.032c1.064 0 1.448-.48 1.448-1.288 0-.784-.488-1.144-1.168-1.696-.52-.416-.712-.568-.712-.856 0-.232.096-.408.44-.408.32 0 .416.144.44.552l.944-.088c-.096-.88-.4-1.296-1.408-1.296-.832 0-1.36.376-1.36 1.272 0 .68.424 1.048 1.04 1.528.592.48.832.648.832.992 0 .272-.08.464-.464.464-.4 0-.496-.096-.52-.8l-.96.12c.032.896.288 1.504 1.448 1.504z"/>
  <defs>
    <filter id="filter0_i" width="65" height="40" x="0" y="2" color-interpolation-filters="sRGB" filterUnits="userSpaceOnUse">
      <feFlood flood-opacity="0" result="BackgroundImageFix"/>
      <feBlend in="SourceGraphic" in2="BackgroundImageFix" result="shape"/>
      <feColorMatrix in="SourceAlpha" result="hardAlpha" values="0 0 0 0 0 0 0 0 0 0 0 0 0 0 0 0 0 0 127 0"/>
      <feOffset dy="4"/>
      <feGaussianBlur stdDeviation="2"/>
      <feComposite in2="hardAlpha" k2="-1" k3="1" operator="arithmetic"/>
      <feColorMatrix values="0 0 0 0 0 0 0 0 0 0 0 0 0 0 0 0 0 0 0.25 0"/>
      <feBlend in2="shape" result="effect1_innerShadow"/>
    </filter>
    <filter id="filter1_i" width="65" height="14" x="0" y="28" color-interpolation-filters="sRGB" filterUnits="userSpaceOnUse">
      <feFlood flood-opacity="0" result="BackgroundImageFix"/>
      <feBlend in="SourceGraphic" in2="BackgroundImageFix" result="shape"/>
      <feColorMatrix in="SourceAlpha" result="hardAlpha" values="0 0 0 0 0 0 0 0 0 0 0 0 0 0 0 0 0 0 127 0"/>
      <feOffset dy="4"/>
      <feGaussianBlur stdDeviation="2"/>
      <feComposite in2="hardAlpha" k2="-1" k3="1" operator="arithmetic"/>
      <feColorMatrix values="0 0 0 0 1 0 0 0 0 1 0 0 0 0 1 0 0 0 0.25 0"/>
      <feBlend in2="shape" result="effect1_innerShadow"/>
    </filter>
    <linearGradient id="paint0_linear" x1="32.5" x2="32.5" y1="0" y2="27" gradientUnits="userSpaceOnUse">
      <stop/>
      <stop offset="1" stop-color="#494949"/>
    </linearGradient>
  </defs>
</svg>
