<svg xmlns="http://www.w3.org/2000/svg" width="274" height="274" fill="none" viewBox="0 0 274 274">
  <path fill="url(#paint0_linear_21:2)" fill-rule="evenodd" d="M54.8 54.8a27.4 27.4 0 0127.4-27.4h109.6a27.401 27.401 0 0127.4 27.4v164.4c3.633 0 7.118 1.443 9.687 4.013a13.697 13.697 0 010 19.374 13.697 13.697 0 01-9.687 4.013h-41.1a13.697 13.697 0 01-9.687-4.013 13.697 13.697 0 01-4.013-9.687v-27.4c0-3.633-1.443-7.118-4.013-9.687a13.697 13.697 0 00-9.687-4.013h-27.4a13.697 13.697 0 00-9.687 4.013 13.697 13.697 0 00-4.013 9.687v27.4c0 3.633-1.443 7.118-4.013 9.687A13.696 13.696 0 0195.9 246.6H54.8a13.697 13.697 0 01-13.7-13.7 13.7 13.7 0 0113.7-13.7V54.8zm41.1 13.7h27.4v27.4H95.9V68.5zm27.4 54.8H95.9v27.4h27.4v-27.4zm27.4-54.8h27.4v27.4h-27.4V68.5zm27.4 54.8h-27.4v27.4h27.4v-27.4z" clip-rule="evenodd"/>
  <defs>
    <linearGradient id="paint0_linear_21:2" x1="137" x2="137" y1="27.4" y2="246.6" gradientUnits="userSpaceOnUse">
      <stop stop-color="#6360FF"/>
      <stop offset="1" stop-color="#0075FF"/>
    </linearGradient>
  </defs>
</svg>
