<svg xmlns="http://www.w3.org/2000/svg" width="22" height="21" fill="none" viewBox="0 0 22 21">
  <path fill="url(#paint0_linear)" d="M6.5 14.5v-3.505c0-.245.25-.495.5-.495h2c.25 0 .5.25.5.5v3.5a.5.5 0 00.5.5h4a.5.5 0 00.5-.5v-7a.5.5 0 00-.146-.354L13 5.793V2.5a.5.5 0 00-.5-.5h-1a.5.5 0 00-.5.5v1.293L8.354 1.146a.5.5 0 00-.708 0l-6 6A.5.5 0 001.5 7.5v7a.5.5 0 00.5.5h4a.5.5 0 00.5-.5z"/>
  <path fill="url(#paint1_linear)" d="M12.5 19.5v-3.505c0-.245.25-.495.5-.495h2c.25 0 .5.25.5.5v3.5a.5.5 0 00.5.5h4a.5.5 0 00.5-.5v-7a.5.5 0 00-.146-.354L19 10.793V7.5a.5.5 0 00-.5-.5h-1a.5.5 0 00-.5.5v1.293l-2.646-2.647a.499.499 0 00-.708 0l-6 6a.5.5 0 00-.146.354v7a.5.5 0 00.5.5h4a.5.5 0 00.5-.5z"/>
  <defs>
    <linearGradient id="paint0_linear" x1="8" x2="8" y1=".999" y2="15" gradientUnits="userSpaceOnUse">
      <stop stop-color="#00FF38"/>
      <stop offset="1" stop-color="#00CC2D"/>
    </linearGradient>
    <linearGradient id="paint1_linear" x1="14" x2="14" y1="5.999" y2="20" gradientUnits="userSpaceOnUse">
      <stop stop-color="#00FF38"/>
      <stop offset="1" stop-color="#00CC2D"/>
    </linearGradient>
  </defs>
</svg>
