<svg xmlns="http://www.w3.org/2000/svg" width="332" height="213" fill="none" viewBox="0 0 332 213">
  <rect width="316" height="150" x="5" y="26" fill="#373737" stroke="#9B9B9B" stroke-width="10" rx="15"/>
  <g clip-path="url(#clip0)">
    <path fill="#9B9B9B" d="M262.086 53.623a4.523 4.523 0 00.829-2.762 4.742 4.742 0 00-1.007-2.752l-1.401-1.643c-5.016-5.403-11.206-9.692-18.115-12.55-12.526-5.107-29.944-6.166-50.685 6.993l-10.174-2.726a5.22 5.22 0 00-1.943-.145 5.02 5.02 0 00-1.835.577l-15.576 8.478a4.63 4.63 0 00-2.276 2.86 4.63 4.63 0 00.541 3.615l18.479 30.304a5.012 5.012 0 001.3 1.417 5.222 5.222 0 003.699.991 5.02 5.02 0 001.835-.577l15.583-8.505a4.627 4.627 0 002.277-2.86l1.571-5.861 59.151 103.073a4.911 4.911 0 001.202 1.707 5.238 5.238 0 003.937 1.363 5.041 5.041 0 002.018-.592l18.165-9.878a4.634 4.634 0 002.249-2.75 4.613 4.613 0 00-.391-3.525L224.608 55.111c8.331-2.25 19.167-3.111 32.101.354 1 .269 2.054.236 3.017-.094a4.782 4.782 0 002.36-1.748z"/>
  </g>
  <path fill="#fff" d="M27.059 95h11.289c8.449 0 13.206-1.491 13.206-11.928v-2.84c0-5.396-1.491-7.952-4.473-9.088 2.627-1.278 4.118-3.55 4.118-8.307v-1.136c0-9.514-4.757-11.147-13.135-11.147H27.059V95zm8.378-6.603V74.765h3.124c4.118 0 4.615 1.136 4.615 5.183v3.195c0 3.692-.497 5.254-4.686 5.254h-3.053zm0-20.235V57.157h2.769c4.189 0 4.615 1.42 4.615 5.112v.639c0 3.976-.426 5.254-4.544 5.254h-2.84zm31.43 27.122c9.869 0 12.567-4.686 12.567-12.496V50.554h-8.307v31.808c0 4.26-1.207 5.751-4.26 5.751-3.195 0-4.19-1.491-4.19-5.822V50.554H54.3v32.305c0 7.81 2.84 12.425 12.567 12.425zM83.292 95h8.378V50.554h-8.378V95zm12.548 0h20.022v-7.313h-11.644V50.554H95.84V95zm22.742 0h12.496C140.876 95 144 89.675 144 82.149V62.908c0-7.313-2.698-12.354-12.993-12.354h-12.425V95zm8.378-7.029V57.725h4.047c4.047 0 4.615 2.272 4.615 5.325v19.312c0 3.763-.781 5.609-4.544 5.609h-4.118zM27.059 150h8.378v-16.756h2.911c8.378 0 13.206-1.917 13.206-12.354v-2.982c0-10.437-4.757-12.354-13.206-12.354H27.059V150zm8.378-23.643v-13.845h3.053c4.189 0 4.686 1.633 4.686 5.254v3.408c0 3.976-.497 5.183-4.615 5.183h-3.124zM49.339 150h8.165l1.49-8.094h6.533l1.49 8.094h8.308l-8.378-44.588h-9.301L49.339 150zm10.366-14.555l1.633-10.153 1.065-6.958.994 6.958 1.49 10.153h-5.182zM77.535 150h8.379v-17.537h2.272L92.872 150h8.591l-4.97-18.673c3.337-1.42 5.183-4.473 5.183-10.792v-2.627c0-10.437-4.686-12.354-13.064-12.354H77.536V150zm8.379-24.14v-13.348h2.84c4.189 0 4.615 1.633 4.615 5.254v2.911c0 3.976-.426 5.183-4.544 5.183h-2.911zM102.866 150h8.165l1.491-8.094h6.532l1.491 8.094h8.307l-8.378-44.588h-9.301L102.866 150zm10.366-14.555l1.633-10.153 1.065-6.958.994 6.958 1.491 10.153h-5.183zM131.063 150h12.496c9.798 0 12.922-5.325 12.922-12.851v-19.241c0-7.313-2.698-12.354-12.993-12.354h-12.425V150zm8.378-7.029v-30.246h4.047c4.047 0 4.615 2.272 4.615 5.325v19.312c0 3.763-.781 5.609-4.544 5.609h-4.118zM159.978 150h8.378v-44.446h-8.378V150zm24.121.284c9.443 0 12.851-4.26 12.851-11.431 0-6.958-4.331-10.153-10.366-15.052-4.615-3.692-6.319-5.041-6.319-7.597 0-2.059.852-3.621 3.905-3.621 2.84 0 3.692 1.278 3.905 4.899l8.378-.781c-.852-7.81-3.55-11.502-12.496-11.502-7.384 0-12.07 3.337-12.07 11.289 0 6.035 3.763 9.301 9.23 13.561 5.254 4.26 7.384 5.751 7.384 8.804 0 2.414-.71 4.118-4.118 4.118-3.55 0-4.402-.852-4.615-7.1l-8.52 1.065c.284 7.952 2.556 13.348 12.851 13.348zm15.745-.284h20.874v-7.313h-12.496v-13.419h10.366v-6.958h-10.366v-9.372h12.496v-7.384h-20.874V150z"/>
  <defs>
    <clipPath id="clip0">
      <path fill="#fff" d="M0 0h212v162.551H0z" transform="rotate(15 59.906 483.066)"/>
    </clipPath>
  </defs>
</svg>
