<svg xmlns="http://www.w3.org/2000/svg" width="20" height="20" fill="none" viewBox="0 0 20 20">
  <path fill="url(#paint0_linear)" fill-rule="evenodd" d="M4 4a2 2 0 012-2h8a2 2 0 012 2v12a1 1 0 010 2h-3a1 1 0 01-1-1v-2a1 1 0 00-1-1H9a1 1 0 00-1 1v2a1 1 0 01-1 1H4a1 1 0 010-2V4zm3 1h2v2H7V5zm2 4H7v2h2V9zm2-4h2v2h-2V5zm2 4h-2v2h2V9z" clip-rule="evenodd"/>
  <defs>
    <linearGradient id="paint0_linear" x1="10" x2="10" y1="2" y2="18" gradientUnits="userSpaceOnUse">
      <stop stop-color="#60CFFF"/>
      <stop offset="1" stop-color="#0075FF"/>
    </linearGradient>
  </defs>
</svg>
